<svg xmlns="http://www.w3.org/2000/svg" width="50" height="50" viewBox="0 0 50 50">
  <g id="Group_192" data-name="Group 192" transform="translate(-588 -124)">
    <circle id="Ellipse_11" data-name="Ellipse 11" cx="25" cy="25" r="25" transform="translate(588 124)" fill="#dbeffc"/>
    <g id="customer" transform="translate(597.756 139.947)">
      <g id="Group_95" data-name="Group 95" transform="translate(8.786 10.159)">
        <g id="Group_94" data-name="Group 94">
          <path id="Path_53" data-name="Path 53" d="M157.733,282.7a5.365,5.365,0,0,0-2.58-.656h-2.221a5.392,5.392,0,0,0-5.393,5.393V289.1h13.007v-1.664A5.391,5.391,0,0,0,157.733,282.7Z" transform="translate(-147.54 -282.045)" fill="#33abfb"/>
        </g>
      </g>
      <g id="Group_97" data-name="Group 97" transform="translate(20.34 8.681)">
        <g id="Group_96" data-name="Group 96">
          <path id="Path_54" data-name="Path 54" d="M346.351,257.225h-1.846a5.34,5.34,0,0,0-2.925.868,7.193,7.193,0,0,1,3.239,6v.782h6.909V262.6A5.383,5.383,0,0,0,346.351,257.225Z" transform="translate(-341.58 -257.225)" fill="#33abfb"/>
        </g>
      </g>
      <g id="Group_99" data-name="Group 99" transform="translate(0 8.681)">
        <g id="Group_98" data-name="Group 98">
          <path id="Path_55" data-name="Path 55" d="M7.223,257.225H5.377A5.383,5.383,0,0,0,0,262.6v2.277H7V264.1a7.2,7.2,0,0,1,3.194-5.974A5.342,5.342,0,0,0,7.223,257.225Z" transform="translate(0 -257.225)" fill="#33abfb"/>
        </g>
      </g>
      <g id="Group_101" data-name="Group 101" transform="translate(20.564 0.594)">
        <g id="Group_100" data-name="Group 100">
          <path id="Path_56" data-name="Path 56" d="M348.958,121.416h-.029a3.826,3.826,0,0,0,.034,7.64h.029a3.509,3.509,0,0,0,2.575-1.162,3.907,3.907,0,0,0,1.018-2.688A3.732,3.732,0,0,0,348.958,121.416Z" transform="translate(-345.337 -121.416)" fill="#33abfb"/>
        </g>
      </g>
      <g id="Group_103" data-name="Group 103" transform="translate(2.676 0.594)">
        <g id="Group_102" data-name="Group 102">
          <path id="Path_57" data-name="Path 57" d="M48.559,121.416H48.53a3.826,3.826,0,0,0,.034,7.64h.029a3.509,3.509,0,0,0,2.575-1.162,3.907,3.907,0,0,0,1.018-2.688A3.732,3.732,0,0,0,48.559,121.416Z" transform="translate(-44.938 -121.416)" fill="#33abfb"/>
        </g>
      </g>
      <g id="Group_105" data-name="Group 105" transform="translate(11.112)">
        <g id="Group_104" data-name="Group 104">
          <path id="Path_58" data-name="Path 58" d="M190.778,111.445a4.306,4.306,0,0,0-4.178,4.414,4.443,4.443,0,0,0,2.392,3.99,3.973,3.973,0,0,0,3.572,0,4.443,4.443,0,0,0,2.392-3.99A4.306,4.306,0,0,0,190.778,111.445Z" transform="translate(-186.6 -111.445)" fill="#33abfb"/>
        </g>
      </g>
    </g>
  </g>
</svg>
