<svg xmlns="http://www.w3.org/2000/svg" width="50" height="50" viewBox="0 0 50 50">
  <g id="Group_190" data-name="Group 190" transform="translate(-1164 -124)">
    <circle id="Ellipse_13" data-name="Ellipse 13" cx="25" cy="25" r="25" transform="translate(1164 124)" fill="#fff9d9"/>
    <g id="upcoming_appointment" data-name="upcoming appointment" transform="translate(1111.957 72.5)">
      <path id="Path_65" data-name="Path 65" d="M120.543,67.261a.544.544,0,0,0,.543-.543V64.543a.543.543,0,1,0-1.087,0v2.174A.544.544,0,0,0,120.543,67.261Z" transform="translate(-52.196)" fill="#f5cd04"/>
      <path id="Path_66" data-name="Path 66" d="M208.543,67.261a.544.544,0,0,0,.543-.543V64.543a.543.543,0,1,0-1.087,0v2.174A.544.544,0,0,0,208.543,67.261Z" transform="translate(-134.217)" fill="#f5cd04"/>
      <path id="Path_67" data-name="Path 67" d="M194.439,337.037l1.136-1.283-1.4-.262Z" transform="translate(-121.329 -253.048)" fill="#f5cd04"/>
      <path id="Path_68" data-name="Path 68" d="M288.543,67.261a.544.544,0,0,0,.544-.543V64.543a.543.543,0,0,0-1.087,0v2.174A.544.544,0,0,0,288.543,67.261Z" transform="translate(-208.783)" fill="#f5cd04"/>
      <path id="Path_69" data-name="Path 69" d="M368.543,67.261a.544.544,0,0,0,.543-.543V64.543a.543.543,0,0,0-1.087,0v2.174A.544.544,0,0,0,368.543,67.261Z" transform="translate(-283.348)" fill="#f5cd04"/>
      <path id="Path_70" data-name="Path 70" d="M64,177.935a.544.544,0,0,0,.543.543h25a.544.544,0,0,0,.543-.543V160H64Zm22.826-2.717h1.087V176.3H86.826Zm-2.174,0h1.087V176.3H84.652ZM83.565,176.3H82.478v-1.087h1.087Zm-11-11.244a5.988,5.988,0,1,1,1.394,9.086l-.786.888a.543.543,0,0,1-.943-.268l-.594-3.429a.543.543,0,0,1,.635-.627l3.115.58a.544.544,0,0,1,.308.895l-1,1.128a4.888,4.888,0,1,0-2.534-3.944.543.543,0,0,1-.5.581.534.534,0,0,1-.581-.5A5.935,5.935,0,0,1,72.567,165.061Zm6.98,5.158a.543.543,0,1,1-.652.87l-2.174-1.631a.543.543,0,0,1-.217-.435v-3.261a.543.543,0,0,1,1.087,0v2.989Z" transform="translate(0 -89.478)" fill="#f5cd04"/>
      <path id="Path_71" data-name="Path 71" d="M89.543,96H86.826v.543a1.63,1.63,0,1,1-3.261,0V96H81.391v.543a1.63,1.63,0,1,1-3.261,0V96H75.957v.543a1.63,1.63,0,1,1-3.261,0V96H69.978v.543a1.63,1.63,0,1,1-3.261,0V96H64.543a.544.544,0,0,0-.543.543v2.717H90.087V96.543A.544.544,0,0,0,89.543,96Z" transform="translate(0 -29.826)" fill="#f5cd04"/>
    </g>
  </g>
</svg>
